<?xml version="1.0" standalone="no"?>
<!DOCTYPE svg PUBLIC "-//W3C//DTD SVG 20010904//EN"
 "http://www.w3.org/TR/2001/REC-SVG-20010904/DTD/svg10.dtd">
<svg version="1.0" xmlns="http://www.w3.org/2000/svg"
 width="800.000000pt" height="800.000000pt" viewBox="0 0 800.000000 800.000000"
 preserveAspectRatio="xMidYMid meet">
<metadata>
Created by potrace 1.11, written by Peter Selinger 2001-2013
</metadata>
<g transform="translate(0.000000,800.000000) scale(0.100000,-0.100000)"
fill="#000000" stroke="none">
<path d="M3855 6770 c-33 -3 -74 -5 -92 -5 -18 0 -33 -2 -33 -5 0 -3 -15 -5
-32 -5 -32 -1 -103 -9 -163 -20 -42 -7 -98 -18 -110 -21 -5 -1 -25 -5 -44 -9
-19 -3 -37 -8 -41 -10 -3 -2 -18 -6 -31 -8 -35 -7 -227 -66 -264 -82 -16 -7
-46 -18 -65 -26 -89 -32 -280 -125 -354 -170 -17 -11 -39 -22 -48 -25 -10 -4
-18 -10 -18 -15 0 -5 -6 -9 -13 -9 -6 0 -35 -16 -62 -35 -28 -19 -58 -41 -69
-48 -235 -158 -492 -411 -673 -666 -40 -55 -73 -103 -73 -105 0 -3 -13 -24
-29 -48 -71 -106 -221 -408 -203 -408 4 0 2 -4 -4 -8 -6 -4 -23 -43 -38 -87
-14 -44 -31 -89 -36 -100 -7 -18 -19 -61 -21 -82 -1 -5 -5 -15 -10 -24 -4 -9
-10 -27 -13 -40 -3 -13 -14 -64 -25 -114 -29 -132 -42 -218 -57 -380 -13 -138
-8 -398 11 -535 3 -19 7 -55 10 -80 3 -25 7 -52 10 -60 2 -8 7 -34 10 -57 16
-113 105 -412 158 -533 11 -25 21 -50 22 -56 3 -12 92 -190 125 -249 35 -64
120 -200 143 -230 36 -48 64 -86 77 -105 8 -12 20 -28 25 -34 6 -6 35 -40 65
-76 71 -84 228 -241 305 -305 33 -28 71 -60 85 -73 14 -12 33 -25 43 -28 9 -3
17 -9 17 -13 0 -5 37 -33 83 -62 45 -30 84 -56 87 -60 3 -3 12 -9 20 -12 8 -4
31 -17 50 -29 81 -50 233 -128 249 -128 6 0 11 -4 11 -9 0 -5 12 -12 28 -17
37 -10 31 -8 82 -31 25 -11 90 -35 145 -53 55 -18 109 -36 120 -41 11 -5 31
-11 45 -14 14 -3 63 -14 110 -25 47 -11 99 -23 115 -25 17 -3 37 -7 45 -8 150
-33 520 -51 685 -32 33 3 83 8 110 11 28 2 61 6 75 9 30 6 100 17 120 19 9 1
21 5 28 10 6 4 12 5 12 3 0 -3 17 -1 38 4 20 5 48 12 62 15 41 8 162 44 203
59 20 8 37 12 37 9 0 -4 6 -2 13 3 6 5 35 17 62 27 57 20 63 22 165 67 41 19
78 38 82 44 4 5 8 6 8 2 0 -5 12 0 28 10 15 11 41 25 57 32 30 12 255 149 265
161 3 3 18 14 33 23 32 21 28 18 162 128 145 120 317 297 420 432 48 64 135
187 135 191 0 3 18 32 40 65 22 33 40 63 40 66 0 4 15 32 33 63 36 63 142 296
153 337 1 6 9 26 18 46 8 20 12 39 9 43 -4 3 -2 6 4 6 6 0 13 12 16 27 3 16
17 71 31 123 31 112 33 118 46 190 6 30 12 66 15 80 6 28 14 84 20 145 24 212
23 464 0 635 -3 19 -8 55 -11 80 -15 110 -24 156 -54 274 -44 168 -94 318
-150 441 -42 95 -123 250 -156 303 -19 29 -34 54 -34 57 0 10 -153 224 -193
270 -9 11 -38 45 -64 75 -56 64 -207 216 -278 279 -48 42 -219 173 -260 198
-11 7 -60 38 -108 68 -248 157 -575 287 -880 350 -10 2 -26 6 -35 9 -16 5 -36
8 -147 22 -27 3 -59 8 -70 10 -58 13 -368 22 -460 14z"/>
</g>
</svg>
